<svg xmlns="http://www.w3.org/2000/svg" width="460" height="310" viewBox="0 0 460 310" font-family="sans-serif" font-size="12"><rect x="0" y="0" width="460" height="310" fill="#ffffff"/><text x="230" y="16" text-anchor="middle" font-size="13" font-weight="bold" fill="#111111">Convex Lens Ray Diagram</text><line x1="34" y1="179.2" x2="426" y2="179.2" stroke="#64748b" stroke-width="1.8"/><line x1="272.61" y1="259.06" x2="272.61" y2="50.94" stroke="#0891b2" stroke-width="1.8"/><line x1="68.09" y1="179.2" x2="68.09" y2="92.4" stroke="#2563eb" stroke-width="2.2"/><polygon points="68.09,82.4 72.59,92.4 63.59,92.4" fill="#2563eb" stroke="#2563eb"/><text x="98.09" y="134.8" text-anchor="middle" data-layout="auto" font-size="12" fill="#2563eb">object</text><line x1="374.87" y1="179.2" x2="374.87" y2="217.6" stroke="#dc2626" stroke-width="2.2"/><polygon points="374.87,227.6 370.37,217.6 379.37,217.6" fill="#dc2626" stroke="#dc2626"/><text x="401.37" y="207.4" text-anchor="middle" data-layout="auto" font-size="12" fill="#dc2626">image</text><line x1="68.09" y1="82.4" x2="272.61" y2="82.4" stroke="#d97706" stroke-width="1.8"/><line x1="272.61" y1="82.4" x2="374.87" y2="227.6" stroke="#d97706" stroke-width="1.8"/><line x1="68.09" y1="82.4" x2="374.87" y2="227.6" stroke="#7c3aed" stroke-width="1.8"/><circle cx="204.43" cy="179.2" r="3" fill="#0f766e"/><text x="196.43" y="171.2" text-anchor="end" data-layout="auto" font-size="12" fill="#111111">F₁</text><circle cx="340.78" cy="179.2" r="3" fill="#0f766e"/><text x="348.78" y="171.2" data-layout="auto" font-size="12" fill="#111111">F₂</text><circle cx="272.61" cy="179.2" r="3" fill="#0891b2"/><text x="280.61" y="171.2" data-layout="auto" font-size="12" fill="#111111">O</text><text x="280.61" y="65.46" data-layout="auto" font-size="12" fill="#0891b2">convex lens</text></svg>